<?xml version="1.0" encoding="utf-8"?>
<!-- Generator: Adobe Illustrator 16.0.0, SVG Export Plug-In . SVG Version: 6.00 Build 0)  -->
<!DOCTYPE svg PUBLIC "-//W3C//DTD SVG 1.1//EN" "http://www.w3.org/Graphics/SVG/1.1/DTD/svg11.dtd">
<svg version="1.1" id="Layer_1" xmlns="http://www.w3.org/2000/svg" xmlns:xlink="http://www.w3.org/1999/xlink" x="0px" y="0px"
	 width="500px" height="500px" viewBox="0 0 500 500" enable-background="new 0 0 500 500" xml:space="preserve">
<g>
	<g>
		<path fill="#FFFFFF" d="M236.884,83.15c-121.918-4.572-150.317,87.186-145.236,142.05c4.924,53.203,23.646,95.123-0.315,114.95
			c-29.465,24.385-69.812-11.782-69.812-11.782L5.598,344.796c0,0,18.328,22.851,43.355,33.106
			c63.248,25.904,105.972-26.025,105.972-26.025l24.328,64.887h47.243v-38.103c0,0,116.582,15.237,164.588,0l-5.441,38.103h48.12
			c0,0,41.148-44.197,54.864-152.403C502.346,156.153,358.804,87.722,236.884,83.15z"/>
		<path fill="#4BC4D8" d="M235.642,171.86c0,0-4.356-148.867,101.094-114.406c112.017,36.608,63.192,231.47-46.537,220.549
			C188.968,267.927,235.642,171.86,235.642,171.86z"/>
		<path fill="#FFFFFF" d="M226.061,184.847c0,0,14.159-147.35,105.593-114.185c91.44,33.166,68.071,190.648-32.508,205.888
			C198.557,291.792,226.061,184.847,226.061,184.847z"/>
		<path fill="#4BC4D8" d="M192.103,275.288c0,8.035-6.512,14.551-14.548,14.551c-8.04,0-14.552-6.516-14.552-14.551
			c0-8.038,6.512-14.552,14.552-14.552C185.591,260.736,192.103,267.25,192.103,275.288z"/>
		<g>
			<path fill="#4BC4D8" d="M237.507,287.598l-2.922,8.267c-1.256,3.559-4.868,5.287-8.434,4.035
				c-3.305-1.169-5.288-4.87-4.027-8.434l4.663-13.229c0.045-0.126,0.171-0.082,0.219-0.213c-0.086-0.172-0.086-0.172-0.041-0.297
				c1.17-3.31,5.124-5.202,8.429-4.036c8.017,2.83,16.75-1.244,19.529-9.131c2.828-8.017-1.46-16.536-9.476-19.363
				c-5.217-1.84-10.783-0.657-14.677,2.688c-2.859,2.426-7.037,2.099-9.458-0.76c-2.298-2.814-2.021-6.857,0.838-9.286
				c7.363-6.271,17.901-8.562,27.695-5.106c14.753,5.204,22.622,21.424,17.418,36.18
				C262.822,281.507,250.322,288.967,237.507,287.598z M227.676,315.454l-0.804,2.291c-1.258,3.557-4.875,5.287-8.432,4.033
				c-3.309-1.171-5.295-4.87-4.036-8.431l0.807-2.289c1.211-3.436,5.121-5.2,8.429-4.037
				C227.204,308.275,228.891,312.018,227.676,315.454z"/>
		</g>
	</g>
</g>
</svg>
